<?xml version="1.0" encoding="UTF-8" standalone="no"?>
<!DOCTYPE svg PUBLIC "-//W3C//DTD SVG 1.1//EN" "http://www.w3.org/Graphics/SVG/1.1/DTD/svg11.dtd">
<svg width="100%" height="100%" viewBox="0 0 280 100" version="1.1" xmlns="http://www.w3.org/2000/svg" xmlns:xlink="http://www.w3.org/1999/xlink" xml:space="preserve" xmlns:serif="http://www.serif.com/" style="fill-rule:evenodd;clip-rule:evenodd;stroke-linejoin:round;stroke-miterlimit:2;">
    <g transform="matrix(1,0,0,1,-315,0)">
        <g id="Bow-Tie" serif:id="Bow Tie" transform="matrix(1.06061,0,0,0.769231,-33.9394,0)">
            <rect x="329" y="0" width="264" height="130" style="fill:none;"/>
            <g transform="matrix(1.22993,0,0,1.69581,-105.997,-45.2278)">
                <g transform="matrix(1.79167,0,0,1.79167,-364.958,-51.5479)">
                    <path d="M468.686,58.605L468.7,58.622C468.7,58.622 473.979,54.429 477,53C480.865,51.172 486.891,48.821 491.891,47.654C496.825,46.503 507,46 507,46C507,46 507.818,48.638 508,50C508.402,53 509,60.333 509,65L509,65.1C509,69.767 508.402,77.1 508,80.1C507.818,81.462 507,84.1 507,84.1C507,84.1 496.825,83.597 491.891,82.446C486.891,81.279 480.865,78.928 477,77.1C473.979,75.671 468.7,71.478 468.7,71.478L468.686,71.495L468.638,71.552L468.621,71.572L468.613,71.581L468.598,71.598L468.56,71.643L468.536,71.67L468.525,71.683L468.512,71.698L468.481,71.733L468.449,71.769L468.436,71.784L468.426,71.795L468.401,71.822L468.358,71.869L468.345,71.883L468.339,71.89L468.32,71.911L468.262,71.972L468.25,71.984C468.159,72.08 468.066,72.174 467.971,72.267L467.898,72.337L467.872,72.362L467.861,72.373L467.811,72.42L467.782,72.446L467.774,72.454L467.762,72.464L467.722,72.501L467.685,72.534L467.674,72.544L467.664,72.553L467.633,72.581L467.585,72.623L467.543,72.66L467.479,72.714L467.468,72.724C467.367,72.81 467.264,72.894 467.159,72.977L467.077,73.04L467.051,73.06L467.039,73.069L466.982,73.112L466.953,73.134L466.943,73.141L466.93,73.151L466.885,73.184L466.847,73.211L466.834,73.22L466.822,73.229L466.787,73.254L466.739,73.288L466.724,73.298L466.716,73.304L466.689,73.323L466.626,73.366L466.589,73.391L466.501,73.45C466.426,73.5 466.35,73.548 466.274,73.595L466.184,73.651L466.158,73.667L466.141,73.677L466.08,73.713L466.053,73.729L466.042,73.736L466.023,73.747L465.976,73.774L465.94,73.795L465.924,73.804L465.908,73.813L465.871,73.834L465.825,73.859L465.806,73.87L465.793,73.877L465.765,73.892L465.707,73.924L465.686,73.934L465.678,73.939L465.658,73.949L465.581,73.99L465.563,73.999C465.484,74.04 465.405,74.079 465.325,74.118L465.224,74.165L465.2,74.177L465.176,74.187L465.114,74.216L465.089,74.227L465.075,74.233L465.051,74.244L465.003,74.266L464.97,74.28L464.951,74.288L464.929,74.297L464.891,74.314L464.848,74.331L464.825,74.341L464.807,74.348L464.778,74.36L464.725,74.382L464.698,74.393L464.686,74.398L464.665,74.406L464.596,74.433L464.57,74.443L464.551,74.45L464.441,74.491C464.399,74.506 464.357,74.522 464.315,74.536L464.206,74.574L464.183,74.582L464.153,74.592L464.089,74.613L464.067,74.62L464.052,74.625L464.022,74.634L463.972,74.65L463.942,74.659L463.92,74.666L463.894,74.674L463.855,74.686L463.815,74.697L463.788,74.706L463.766,74.712L463.736,74.72L463.686,74.734L463.655,74.743L463.639,74.747L463.617,74.753L463.554,74.77L463.521,74.779L463.498,74.785L463.411,74.807L463.383,74.814C463.34,74.824 463.297,74.835 463.253,74.845L463.136,74.871L463.115,74.875L463.08,74.883L463.014,74.897L462.994,74.901L462.978,74.904L462.944,74.911L462.892,74.921L462.864,74.926L462.841,74.931L462.81,74.936L462.769,74.944L462.732,74.95L462.703,74.955L462.678,74.959L462.646,74.965L462.598,74.973L462.564,74.978L462.545,74.981L462.522,74.985L462.462,74.993L462.425,74.999L462.398,75.003L462.319,75.013L462.285,75.018L462.279,75.019C462.235,75.024 462.19,75.03 462.146,75.035L462.022,75.048L462.003,75.05L461.965,75.054L461.896,75.06L461.877,75.062L461.862,75.063L461.824,75.066L461.769,75.071L461.742,75.073L461.719,75.074L461.686,75.077L461.642,75.08L461.606,75.082L461.576,75.084L461.549,75.085L461.514,75.087L461.468,75.089L461.433,75.091L461.412,75.092L461.386,75.093L461.328,75.095L461.289,75.096L461.275,75.096L461.258,75.097L461.183,75.098L461.145,75.099L461.129,75.099L461,75.1C460.954,75.1 460.908,75.1 460.862,75.099L460.855,75.099L460.817,75.098L460.742,75.097L460.725,75.096L460.711,75.096L460.672,75.095L460.614,75.093L460.588,75.092L460.567,75.091L460.532,75.089L460.486,75.087L460.451,75.085L460.424,75.084L460.394,75.082L460.358,75.08L460.314,75.077L460.281,75.074L460.258,75.073L460.231,75.071L460.176,75.066L460.138,75.063L460.123,75.062L460.104,75.06L460.035,75.054L459.997,75.05L459.978,75.048L459.856,75.035L459.854,75.035C459.809,75.03 459.765,75.024 459.721,75.019L459.715,75.018L459.681,75.013L459.602,75.003L459.575,74.999L459.538,74.993L459.478,74.985L459.455,74.981L459.436,74.978L459.402,74.973L459.354,74.965L459.322,74.959L459.297,74.955L459.268,74.95L459.231,74.944L459.19,74.936L459.159,74.931L459.136,74.926L459.108,74.921L459.056,74.911L459.022,74.904L459.006,74.901L458.986,74.897L458.92,74.883L458.885,74.875L458.864,74.871L458.77,74.85L458.747,74.845C458.703,74.835 458.66,74.824 458.617,74.814L458.502,74.785L458.479,74.779L458.446,74.77L458.383,74.753L458.361,74.747L458.345,74.743L458.314,74.734L458.264,74.72L458.234,74.712L458.212,74.706L458.185,74.697L458.145,74.686L458.106,74.674L458.08,74.666L458.058,74.659L458.028,74.65L457.978,74.634L457.948,74.625L457.933,74.62L457.911,74.613L457.847,74.592L457.817,74.582L457.794,74.574L457.705,74.543L457.685,74.536C457.643,74.522 457.601,74.507 457.559,74.491L457.449,74.45L457.43,74.443L457.404,74.433L457.335,74.406L457.314,74.398L457.302,74.393L457.275,74.382L457.222,74.36L457.193,74.348L457.175,74.341L457.152,74.331L457.109,74.314L457.071,74.297L457.049,74.288L457.03,74.28L456.997,74.266L456.949,74.244L456.925,74.233L456.911,74.227L456.886,74.216L456.824,74.187L456.8,74.177L456.776,74.165L456.689,74.124L456.675,74.118C456.596,74.079 456.516,74.04 456.437,73.999L456.342,73.949L456.322,73.939L456.314,73.934L456.293,73.924L456.235,73.892L456.207,73.877L456.194,73.87L456.175,73.859L456.129,73.834L456.092,73.813L456.076,73.804L456.06,73.795L456.024,73.774L455.977,73.747L455.958,73.736L455.947,73.729L455.92,73.713L455.859,73.677L455.816,73.651L455.726,73.595C455.65,73.548 455.574,73.5 455.499,73.45L455.411,73.391L455.387,73.375L455.374,73.366L455.311,73.323L455.284,73.304L455.276,73.298L455.261,73.288L455.213,73.254L455.178,73.229L455.166,73.22L455.153,73.211L455.115,73.184L455.07,73.151L455.057,73.141L455.047,73.134L455.018,73.112L454.961,73.069L454.923,73.04L454.841,72.977C454.736,72.894 454.633,72.81 454.532,72.724L454.457,72.66L454.433,72.639L454.367,72.581L454.336,72.553L454.326,72.544L454.315,72.534L454.278,72.501L454.238,72.464L454.226,72.454L454.218,72.446L454.189,72.42L454.139,72.373L454.102,72.337L454.037,72.274L454.029,72.267C453.934,72.175 453.841,72.08 453.75,71.984L453.68,71.911L453.661,71.89L453.655,71.883L453.642,71.869L453.599,71.822L453.574,71.795L453.564,71.784L453.551,71.769L453.519,71.733L453.488,71.698L453.475,71.683L453.464,71.67L453.44,71.643L453.402,71.598L453.387,71.581L453.379,71.572L453.362,71.552L453.314,71.495L453.3,71.478C453.3,71.478 448.021,75.671 445,77.1C441.135,78.928 435.109,81.279 430.109,82.446C425.175,83.597 415,84.1 415,84.1C415,84.1 414.182,81.462 414,80.1C413.598,77.1 413,69.767 413,65.1L413,65C413,60.333 413.598,53 414,50C414.182,48.638 415,46 415,46C415,46 425.175,46.503 430.109,47.654C435.109,48.821 441.135,51.172 445,53C448.021,54.429 453.3,58.622 453.3,58.622L453.314,58.605L453.362,58.548L453.379,58.528L453.387,58.519L453.402,58.502L453.44,58.457L453.464,58.43L453.475,58.417L453.488,58.402L453.519,58.367L453.551,58.331L453.564,58.316L453.574,58.305L453.599,58.278L453.642,58.231L453.655,58.217L453.661,58.21L453.68,58.189L453.738,58.128L453.75,58.116C453.841,58.02 453.934,57.926 454.029,57.833L454.102,57.763L454.128,57.738L454.139,57.727L454.189,57.68L454.218,57.654L454.226,57.646L454.238,57.636L454.278,57.599L454.315,57.566L454.326,57.556L454.336,57.547L454.367,57.519L454.415,57.477L454.457,57.44L454.521,57.386L454.532,57.376C454.633,57.29 454.736,57.206 454.841,57.123L454.923,57.06L454.949,57.04L454.961,57.031L455.018,56.988L455.047,56.966L455.057,56.959L455.07,56.949L455.115,56.916L455.153,56.889L455.166,56.88L455.178,56.871L455.213,56.846L455.261,56.812L455.276,56.802L455.284,56.796L455.311,56.777L455.374,56.734L455.411,56.709L455.499,56.65C455.574,56.6 455.65,56.552 455.726,56.505L455.816,56.449L455.842,56.433L455.859,56.423L455.92,56.387L455.947,56.371L455.958,56.364L455.977,56.353L456.024,56.326L456.06,56.305L456.076,56.296L456.092,56.287L456.129,56.266L456.175,56.241L456.194,56.23L456.207,56.223L456.235,56.208L456.293,56.176L456.314,56.166L456.322,56.161L456.342,56.151L456.419,56.11L456.437,56.101C456.516,56.06 456.595,56.021 456.675,55.982L456.776,55.935L456.8,55.923L456.824,55.913L456.886,55.884L456.911,55.873L456.925,55.867L456.949,55.856L456.997,55.834L457.03,55.82L457.049,55.812L457.071,55.803L457.109,55.786L457.152,55.769L457.175,55.759L457.193,55.752L457.222,55.74L457.275,55.718L457.302,55.707L457.314,55.702L457.335,55.694L457.404,55.667L457.43,55.657L457.449,55.65L457.559,55.609C457.601,55.594 457.643,55.578 457.685,55.564L457.794,55.526L457.817,55.518L457.847,55.508L457.911,55.487L457.933,55.48L457.948,55.475L457.978,55.466L458.028,55.45L458.058,55.441L458.08,55.434L458.106,55.426L458.145,55.414L458.185,55.403L458.212,55.394L458.234,55.388L458.264,55.38L458.314,55.366L458.345,55.357L458.361,55.353L458.383,55.347L458.446,55.33L458.479,55.321L458.502,55.315L458.589,55.293L458.617,55.286C458.66,55.276 458.703,55.265 458.747,55.255L458.864,55.229L458.885,55.225L458.92,55.217L458.986,55.203L459.006,55.199L459.022,55.196L459.056,55.189L459.108,55.179L459.136,55.174L459.159,55.169L459.19,55.164L459.231,55.156L459.268,55.15L459.297,55.145L459.322,55.141L459.354,55.135L459.402,55.127L459.436,55.122L459.455,55.119L459.478,55.115L459.538,55.107L459.575,55.101L459.602,55.097L459.681,55.087L459.715,55.082L459.721,55.081C459.765,55.076 459.81,55.07 459.854,55.065L459.978,55.052L459.997,55.05L460.035,55.046L460.104,55.04L460.123,55.038L460.138,55.037L460.176,55.034L460.231,55.029L460.258,55.027L460.281,55.026L460.314,55.023L460.358,55.02L460.394,55.018L460.424,55.016L460.451,55.015L460.486,55.013L460.532,55.011L460.567,55.009L460.588,55.008L460.614,55.007L460.672,55.005L460.711,55.004L460.725,55.004L460.742,55.003L460.817,55.002L460.855,55.001L460.862,55.001C460.908,55 460.954,55 461,55L461.129,55.001L461.145,55.001L461.183,55.002L461.258,55.003L461.275,55.004L461.289,55.004L461.328,55.005L461.386,55.007L461.412,55.008L461.433,55.009L461.468,55.011L461.514,55.013L461.549,55.015L461.576,55.016L461.606,55.018L461.642,55.02L461.686,55.023L461.719,55.026L461.742,55.027L461.769,55.029L461.824,55.034L461.862,55.037L461.877,55.038L461.896,55.04L461.965,55.046L462.003,55.05L462.022,55.052L462.144,55.065L462.146,55.065C462.191,55.07 462.235,55.076 462.279,55.081L462.285,55.082L462.319,55.087L462.398,55.097L462.425,55.101L462.462,55.107L462.522,55.115L462.545,55.119L462.564,55.122L462.598,55.127L462.646,55.135L462.678,55.141L462.703,55.145L462.732,55.15L462.769,55.156L462.81,55.164L462.841,55.169L462.864,55.174L462.892,55.179L462.944,55.189L462.978,55.196L462.994,55.199L463.014,55.203L463.08,55.217L463.115,55.225L463.136,55.229L463.23,55.25L463.253,55.255C463.297,55.265 463.34,55.276 463.383,55.286L463.498,55.315L463.521,55.321L463.554,55.33L463.617,55.347L463.639,55.353L463.655,55.357L463.686,55.366L463.736,55.38L463.766,55.388L463.788,55.394L463.815,55.403L463.855,55.414L463.894,55.426L463.92,55.434L463.942,55.441L463.972,55.45L464.022,55.466L464.052,55.475L464.067,55.48L464.089,55.487L464.153,55.508L464.183,55.518L464.206,55.526L464.295,55.557L464.315,55.564C464.357,55.578 464.399,55.593 464.441,55.609L464.551,55.65L464.57,55.657L464.596,55.667L464.665,55.694L464.686,55.702L464.698,55.707L464.725,55.718L464.778,55.74L464.807,55.752L464.825,55.759L464.848,55.769L464.891,55.786L464.929,55.803L464.951,55.812L464.97,55.82L465.003,55.834L465.051,55.856L465.075,55.867L465.089,55.873L465.114,55.884L465.176,55.913L465.2,55.923L465.224,55.935L465.311,55.976L465.325,55.982C465.404,56.021 465.484,56.06 465.563,56.101L465.658,56.151L465.678,56.161L465.686,56.166L465.707,56.176L465.765,56.208L465.793,56.223L465.806,56.23L465.825,56.241L465.871,56.266L465.908,56.287L465.924,56.296L465.94,56.305L465.976,56.326L466.023,56.353L466.042,56.364L466.053,56.371L466.08,56.387L466.141,56.423L466.184,56.449L466.274,56.505C466.35,56.552 466.426,56.6 466.501,56.65L466.589,56.709L466.613,56.725L466.626,56.734L466.689,56.777L466.716,56.796L466.724,56.802L466.739,56.812L466.787,56.846L466.822,56.871L466.834,56.88L466.847,56.889L466.885,56.916L466.93,56.949L466.943,56.959L466.953,56.966L466.982,56.988L467.039,57.031L467.077,57.06L467.159,57.123C467.264,57.206 467.367,57.29 467.468,57.376L467.543,57.44L467.567,57.461L467.633,57.519L467.664,57.547L467.674,57.556L467.685,57.566L467.722,57.599L467.762,57.636L467.774,57.646L467.782,57.654L467.811,57.68L467.861,57.727L467.898,57.763L467.963,57.826L467.971,57.833C468.066,57.925 468.159,58.02 468.25,58.116L468.32,58.189L468.339,58.21L468.345,58.217L468.358,58.231L468.401,58.278L468.426,58.305L468.436,58.316L468.449,58.331L468.481,58.367L468.512,58.402L468.525,58.417L468.536,58.43L468.56,58.457L468.598,58.502L468.613,58.519L468.621,58.528L468.638,58.548L468.686,58.605Z"/>
                </g>
                <g transform="matrix(0.465305,0,0,1,106.845,0)">
                    <rect x="532" y="55" width="40" height="20"/>
                </g>
                <g transform="matrix(0.465305,0,0,1,301.458,7.10543e-15)">
                    <rect x="532" y="55" width="40" height="20"/>
                </g>
            </g>
        </g>
    </g>
</svg>
